<?xml version="1.0" encoding="UTF-8" standalone="no"?>
<svg
   xmlns:dc="http://purl.org/dc/elements/1.1/"
   xmlns:cc="http://creativecommons.org/ns#"
   xmlns:rdf="http://www.w3.org/1999/02/22-rdf-syntax-ns#"
   xmlns:svg="http://www.w3.org/2000/svg"
   xmlns="http://www.w3.org/2000/svg"
   xmlns:sodipodi="http://sodipodi.sourceforge.net/DTD/sodipodi-0.dtd"
   xmlns:inkscape="http://www.inkscape.org/namespaces/inkscape"
   width="165.00421mm"
   height="97.501198mm"
   viewBox="0 0 165.00421 97.501198"
   version="1.1"
   id="svg8"
   inkscape:version="1.0.2 (e86c870879, 2021-01-15, custom)"
   sodipodi:docname="toroidal_segment.svg">
  <defs
     id="defs2" />
  <sodipodi:namedview
     id="base"
     pagecolor="#ffffff"
     bordercolor="#666666"
     borderopacity="1.0"
     inkscape:pageopacity="0.0"
     inkscape:pageshadow="2"
     inkscape:zoom="0.98994949"
     inkscape:cx="356.95346"
     inkscape:cy="323.11996"
     inkscape:document-units="mm"
     inkscape:current-layer="layer1"
     inkscape:document-rotation="0"
     showgrid="false"
     inkscape:snap-smooth-nodes="false"
     inkscape:object-paths="true"
     inkscape:snap-object-midpoints="true"
     inkscape:snap-intersection-paths="true"
     inkscape:object-nodes="true"
     fit-margin-top="0"
     fit-margin-left="0"
     fit-margin-right="0"
     fit-margin-bottom="0"
     inkscape:window-width="2560"
     inkscape:window-height="1440"
     inkscape:window-x="0"
     inkscape:window-y="0"
     inkscape:window-maximized="0" />
  <metadata
     id="metadata5">
    <rdf:RDF>
      <cc:Work
         rdf:about="">
        <dc:format>image/svg+xml</dc:format>
        <dc:type
           rdf:resource="http://purl.org/dc/dcmitype/StillImage" />
        <dc:title></dc:title>
        <cc:license
           rdf:resource="" />
      </cc:Work>
    </rdf:RDF>
  </metadata>
  <g
     inkscape:label="Layer 1"
     inkscape:groupmode="layer"
     id="layer1"
     transform="translate(-13.105828,-9.9195795)">
    <ellipse
       style="fill:none;stroke:#030100;stroke-width:0.5;stroke-linecap:round;stroke-miterlimit:4;stroke-dasharray:none;stroke-opacity:1"
       id="path873"
       cx="16.04319"
       cy="-43.94862"
       rx="5.8736105"
       ry="18.701109"
       transform="rotate(90)" />
    <path
       style="fill:none;stroke:#030100;stroke-width:0.5;stroke-linecap:butt;stroke-linejoin:miter;stroke-miterlimit:4;stroke-dasharray:none;stroke-opacity:1"
       d="m 62.649728,16.043189 c -0.02129,15.653941 11.891683,17.514363 11.891683,42.626988 0,25.112625 -11.912974,26.973047 -11.891683,42.626993"
       id="path892"
       sodipodi:nodetypes="ccc" />
    <path
       style="fill:none;stroke:#030100;stroke-width:0.5;stroke-linecap:butt;stroke-linejoin:miter;stroke-miterlimit:4;stroke-dasharray:none;stroke-opacity:1"
       d="m 25.247511,16.043189 c 0.02129,15.653941 -11.891683,17.514363 -11.891683,42.626988 0,25.112625 11.912974,26.973047 11.891683,42.626993"
       id="path898"
       sodipodi:nodetypes="ccc" />
    <path
       style="fill:none;stroke:#030100;stroke-width:0.5;stroke-linecap:butt;stroke-linejoin:miter;stroke-miterlimit:4;stroke-dasharray:none;stroke-opacity:1"
       d="m 47.225012,33.497703 c -7.757965,7.34745 -10.255726,16.689979 -10.255726,26.009438 v 0 c 0,9.319459 2.497761,18.661988 10.255726,26.009438"
       id="path903"
       sodipodi:nodetypes="cccc" />
    <path
       style="fill:none;stroke:#030100;stroke-width:0.5;stroke-linecap:butt;stroke-linejoin:miter;stroke-miterlimit:4;stroke-dasharray:none;stroke-opacity:1"
       d="M 45.200159,35.591726 C 51.825597,44.105587 53.077,51.114076 53.077,59.50714 v 0 c 0,8.393064 -1.251403,15.401553 -7.876841,23.915414"
       id="path907"
       sodipodi:nodetypes="cccc" />
    <g
       id="g927"
       transform="rotate(90,45.958424,46.182159)">
      <path
         id="ellipse919"
         style="fill:none;stroke:#030100;stroke-width:0.5;stroke-linecap:round;stroke-miterlimit:4;stroke-dasharray:none;stroke-opacity:1"
         d="m 59.283405,17.603642 c 1.861227,-1e-6 3.37005,4.803971 3.37005,10.72997 0,5.926 -1.508823,10.729972 -3.37005,10.729971"
         sodipodi:nodetypes="csc" />
      <path
         id="ellipse921"
         style="fill:none;stroke:#030100;stroke-width:0.5;stroke-linecap:round;stroke-miterlimit:4;stroke-dasharray:0.5, 1;stroke-dashoffset:0;stroke-opacity:1"
         d="m 59.283405,39.063583 c -1.861227,-1e-6 -3.370049,-4.803973 -3.370049,-10.729971 0,-5.925998 1.508822,-10.729969 3.370049,-10.72997"
         sodipodi:nodetypes="csc" />
    </g>
    <g
       id="g933"
       transform="matrix(0,1.1001423,-1.1001423,0,56.335797,-5.71304)"
       style="stroke-width:0.908973">
      <path
         id="path929"
         style="fill:none;stroke:#030100;stroke-width:0.454487;stroke-linecap:round;stroke-miterlimit:4;stroke-dasharray:none;stroke-opacity:1"
         d="m 59.283405,17.603642 c 1.861227,-1e-6 3.37005,4.803971 3.37005,10.72997 0,5.926 -1.508823,10.729972 -3.37005,10.729971"
         sodipodi:nodetypes="csc" />
      <path
         id="path931"
         style="fill:none;stroke:#030100;stroke-width:0.454487;stroke-linecap:round;stroke-miterlimit:4;stroke-dasharray:0.454487, 0.908973;stroke-dashoffset:0;stroke-opacity:1"
         d="m 59.283405,39.063583 c -1.861227,-1e-6 -3.370049,-4.803973 -3.370049,-10.729971 0,-5.925998 1.508822,-10.729969 3.370049,-10.72997"
         sodipodi:nodetypes="csc" />
    </g>
    <g
       id="g939"
       transform="matrix(0,1.7428854,-1.7428854,0,93.330858,-2.0270139)"
       style="stroke-width:0.573761">
      <path
         id="path935"
         style="fill:none;stroke:#030100;stroke-width:0.286881;stroke-linecap:round;stroke-miterlimit:4;stroke-dasharray:none;stroke-opacity:1"
         d="m 59.283405,17.603642 c 1.861227,-1e-6 3.37005,4.803971 3.37005,10.72997 0,5.926 -1.508823,10.729972 -3.37005,10.729971"
         sodipodi:nodetypes="csc" />
      <path
         id="path937"
         style="fill:none;stroke:#030100;stroke-width:0.286881;stroke-linecap:round;stroke-miterlimit:4;stroke-dasharray:0.286881, 0.573761;stroke-dashoffset:0;stroke-opacity:1"
         d="m 59.283405,39.063583 c -1.861227,-1e-6 -3.370049,-4.803973 -3.370049,-10.729971 0,-5.925998 1.508822,-10.729969 3.370049,-10.72997"
         sodipodi:nodetypes="csc" />
    </g>
    <g
       id="g995"
       style="fill:#000000;fill-opacity:1">
      <ellipse
         style="fill:#000000;fill-opacity:1;stroke:#030202;stroke-width:0.5;stroke-linecap:round;stroke-miterlimit:4;stroke-dasharray:none;stroke-dashoffset:0;stroke-opacity:1"
         id="path941"
         cx="149.19955"
         cy="101.29859"
         rx="4.4572377"
         ry="4.4570613" />
      <ellipse
         style="fill:#000000;fill-opacity:1;stroke:#030202;stroke-width:0.5;stroke-linecap:round;stroke-miterlimit:4;stroke-dasharray:none;stroke-dashoffset:0;stroke-opacity:1"
         id="ellipse973"
         cx="149.19955"
         cy="16.04319"
         rx="4.4572377"
         ry="4.4570613" />
    </g>
    <ellipse
       style="fill:none;stroke:#030202;stroke-width:0.499999;stroke-linecap:round;stroke-miterlimit:4;stroke-dasharray:none;stroke-dashoffset:0;stroke-opacity:1"
       id="path991"
       cx="149.19954"
       cy="58.670887"
       rx="28.6605"
       ry="43.477901" />
  </g>
</svg>
